# xmcd
#
# Track frame offsets:
#	150
#	13423
#	24699
#	42468
#	63539
#	86754
#	105253
#	123355
#	143266
#	154042
#	169698
#	181235
#	192188
#
# Disc length: 2787 seconds
#
# Revision: 1
# Processed by: cddbd v1.5.1PL2 Copyright (c) Steve Scherf et al.
# Submitted via: audiograbber 1.83.01
#
DISCID=a50ae10d
DTITLE=ali ekber çiçek - yolumuz gurbrte diþtü
DYEAR=2004
DGENRE=bules
TTITLE0=Yolumuz gurbete düþtü
TTITLE1=Aþýk'a tuzak gerkmez
TTITLE2=Dünya malýna güvenme
TTITLE3=Aðlama gözlerim mevlam kerimdir
TTITLE4=Haydar Haydar
TTITLE5=Sus aðlama benim biçare gönlüm
TTITLE6=Geldim þu alemi islah edeyim
TTITLE7=Kiþi sevdiðni gnülde bulsa
TTITLE8=Meydan saz enstürümental
TTITLE9=El vurup yarami imcitme tabip
TTITLE10=Hüsnüne maðrurlanma
TTITLE11=Yücelerden seyrederim dost izini
TTITLE12=Gönül kalk gidelim
EXTD=
EXTT0=etnik
EXTT1=
EXTT2=
EXTT3=
EXTT4=
EXTT5=
EXTT6=
EXTT7=
EXTT8=
EXTT9=
EXTT10=
EXTT11=
EXTT12=
PLAYORDER=
